<svg xmlns="http://www.w3.org/2000/svg" viewBox="0 0 17 13"><defs><style>.cls-1{fill:#536297;}</style></defs><g id="Layer_2" data-name="Layer 2"><g id="Layer_1-2" data-name="Layer 1"><path class="cls-1" d="M0,11V2a.29.29,0,0,0,0-.1A2.12,2.12,0,0,1,1.76.05L2,0H15l.29.06a2.12,2.12,0,0,1,1.71,2v8.84a2.11,2.11,0,0,1,0,.25A2.13,2.13,0,0,1,14.85,13H2.19a2.3,2.3,0,0,1-.37,0,2.14,2.14,0,0,1-1.74-1.6C.05,11.25,0,11.11,0,11Zm8.51.94h6.26l.31,0a1,1,0,0,0,.84-1V2.15a1,1,0,0,0-.58-.94,1.17,1.17,0,0,0-.56-.11H2.23A1.07,1.07,0,0,0,1.09,2.2c0,2.87,0,5.75,0,8.62a1.53,1.53,0,0,0,0,.3,1.05,1.05,0,0,0,1.05.8Z"/><path class="cls-1" d="M10.81,6.43a1,1,0,0,1,.13.09l3.81,3.62.16.15a.55.55,0,0,1,0,.77.52.52,0,0,1-.75,0L12.31,9.32l-2.2-2.1c-.07-.07-.12-.08-.2,0l-1,.89a.54.54,0,0,1-.78,0l-1-.86-.11-.09L7,7.27,2.94,11a.55.55,0,0,1-.93-.2.56.56,0,0,1,.17-.58l1-1L6.12,6.56l.16-.12L6.1,6.3,2.17,2.78A.55.55,0,1,1,2.9,2l5.51,5c.09.07.13.07.22,0L12.3,3.61,14.14,2a.54.54,0,1,1,.73.8l-2,1.79-2,1.77-.09.06Z"/></g></g></svg>