<svg xmlns="http://www.w3.org/2000/svg" viewBox="0 0 18 18"><defs><style>.cls-1{fill:#536297;}</style></defs><g id="Layer_2" data-name="Layer 2"><g id="Layer_1-2" data-name="Layer 1"><path class="cls-1" d="M12.84,18l-.4-.05a8.14,8.14,0,0,1-2.26-.61,17.5,17.5,0,0,1-6-4.13A17.81,17.81,0,0,1,1.14,8.93a11.07,11.07,0,0,1-1-2.73,4.51,4.51,0,0,1,0-2A2.45,2.45,0,0,1,.68,3.09c.52-.55,1-1.08,1.59-1.6A1.65,1.65,0,0,1,3.41,1a1.68,1.68,0,0,1,1.14.43c.23.2.44.41.65.62l1.59,1.6a1.93,1.93,0,0,1,.56.95,1.67,1.67,0,0,1-.49,1.6c-.38.4-.78.79-1.18,1.18a.17.17,0,0,0,0,.21A9,9,0,0,0,6.8,9.35,12.79,12.79,0,0,0,9.69,12a6.47,6.47,0,0,0,.69.36.13.13,0,0,0,.13,0l1.16-1.14a1.83,1.83,0,0,1,.91-.53,1.6,1.6,0,0,1,1.49.41c.36.32.69.67,1,1l1.26,1.27a1.74,1.74,0,0,1,.53,1.31,1.83,1.83,0,0,1-.58,1.24c-.28.29-.58.57-.87.86a7.36,7.36,0,0,1-.62.63,2.69,2.69,0,0,1-1.6.63.7.7,0,0,0-.14,0ZM1,5.08H1c.06.35.09.71.17,1A11,11,0,0,0,2.35,9.07a17.78,17.78,0,0,0,3.87,4.68,16,16,0,0,0,4.53,2.75,6,6,0,0,0,2.33.48,1.82,1.82,0,0,0,1.31-.59l.93-1c.15-.16.31-.31.44-.48a.66.66,0,0,0,0-.84,1.54,1.54,0,0,0-.17-.19l-2.1-2.1a.53.53,0,0,0-.14-.12.62.62,0,0,0-.74-.05,1.23,1.23,0,0,0-.28.23L11,13.16a.73.73,0,0,1-.89.17,11.87,11.87,0,0,1-1.42-.82A14.46,14.46,0,0,1,5.87,9.79a7.93,7.93,0,0,1-1.23-2,.79.79,0,0,1,.18-1L6.09,5.61a1.71,1.71,0,0,0,.21-.26.59.59,0,0,0,0-.65,1.83,1.83,0,0,0-.24-.31L4.5,2.8c-.18-.19-.37-.37-.56-.55a.71.71,0,0,0-1,0l-.19.16c-.37.38-.74.76-1.12,1.12A2,2,0,0,0,1,5.08Z"/><path class="cls-1" d="M18,8.06l0,.06a.49.49,0,0,1-1,0,8.85,8.85,0,0,0-.41-1.53A8.64,8.64,0,0,0,10.5,1.12c-.22-.06-.43-.09-.65-.14A.49.49,0,0,1,9.47.42.48.48,0,0,1,9.94,0a3.82,3.82,0,0,1,.66.12,9.69,9.69,0,0,1,6.56,5.25A9.33,9.33,0,0,1,18,7.88.19.19,0,0,0,18,8Z"/><path class="cls-1" d="M14.21,8.66a.49.49,0,0,1-.49-.45A4.87,4.87,0,0,0,10.34,4.4c-.21-.07-.42-.1-.64-.15a.5.5,0,0,1-.37-.6.49.49,0,0,1,.58-.37,5.9,5.9,0,0,1,4.74,4.46,1.59,1.59,0,0,1,0,.53A.45.45,0,0,1,14.21,8.66Z"/></g></g></svg>