<svg xmlns="http://www.w3.org/2000/svg" viewBox="0 0 16 18.98"><defs><style>.cls-1{fill:#536297;}</style></defs><g id="Layer_2" data-name="Layer 2"><g id="Layer_1-2" data-name="Layer 1"><path class="cls-1" d="M0,15.07c0-.13,0-.27,0-.4a4.84,4.84,0,0,1,.31-1.5A2.34,2.34,0,0,1,2,11.77,11.16,11.16,0,0,0,5,10.35a.53.53,0,0,1,.5-.1.51.51,0,0,1,.13.9c-.35.22-.7.44-1.06.64a10.87,10.87,0,0,1-2.42,1,1.38,1.38,0,0,0-1,1.09,5,5,0,0,0-.12.94c0,.41,0,.82,0,1.22a.58.58,0,0,0,0,.23.34.34,0,0,0,.14.15,11.27,11.27,0,0,0,2.22.91,13.06,13.06,0,0,0,2.47.51c.53.06,1.07.1,1.61.12s.87,0,1.3,0a15.93,15.93,0,0,0,3.82-.66,13.57,13.57,0,0,0,2-.82.4.4,0,0,0,.25-.41c0-.45,0-.91,0-1.37a2.93,2.93,0,0,0-.21-1.09,1.38,1.38,0,0,0-.93-.83,12,12,0,0,1-3.37-1.55.57.57,0,0,1-.28-.41.46.46,0,0,1,.24-.5.5.5,0,0,1,.55,0c.34.2.67.41,1,.6a9.68,9.68,0,0,0,2.14.86,2.29,2.29,0,0,1,1.55,1.37,3.86,3.86,0,0,1,.29,1.25l0,.52A.53.53,0,0,0,16,15v.37l0,.18c0,.3-.05.6-.08.9a.88.88,0,0,1-.51.75,14.66,14.66,0,0,1-1.94.86,14.61,14.61,0,0,1-3.19.73c-.55.07-1.11.12-1.66.14a18.13,18.13,0,0,1-2.85-.13,16.46,16.46,0,0,1-2.32-.48A12.39,12.39,0,0,1,.5,17.16a.57.57,0,0,1-.32-.41c0-.33-.1-.67-.14-1,0-.12,0-.24,0-.36Z"/><path class="cls-1" d="M8.09,0l.45.06A3.7,3.7,0,0,1,11.85,3,6.24,6.24,0,0,1,12,4.33c0,.4,0,.8,0,1.19a6.46,6.46,0,0,1-.82,2.94,3.42,3.42,0,0,1-2.68,1.72,4.18,4.18,0,0,1-2.07-.25A3.51,3.51,0,0,1,4.69,8.27a6.14,6.14,0,0,1-.64-2A9.69,9.69,0,0,1,4,4.53,5.69,5.69,0,0,1,4.51,2,3.61,3.61,0,0,1,7.09.11c.22,0,.45,0,.67-.08l.13,0ZM5,5c0,.22,0,.59.09,1A4.75,4.75,0,0,0,5.6,7.83,2.4,2.4,0,0,0,7.07,9.06a3.39,3.39,0,0,0,1.23.12,2.49,2.49,0,0,0,1.95-1.11A5.19,5.19,0,0,0,11,5.44a8.17,8.17,0,0,0,0-1,8.14,8.14,0,0,0-.15-1.22,2.6,2.6,0,0,0-1.65-2,3.37,3.37,0,0,0-1.78-.18A2.63,2.63,0,0,0,5.18,3,8.05,8.05,0,0,0,5,5Z"/></g></g></svg>